<svg width="48" height="48" viewBox="0 0 48 48" fill="none" xmlns="http://www.w3.org/2000/svg">
<path d="M33.1708 43.0001H14.8438C13.7392 43.0001 12.8438 42.1046 12.8438 41.0001V30.2715C12.8438 25.3009 16.8732 21.2715 21.8437 21.2715H26.1708C31.1413 21.2715 35.1708 25.3009 35.1708 30.2715V41.0001C35.1708 42.1047 34.2753 43.0001 33.1708 43.0001Z" stroke="#225FBF" stroke-width="1.7"/>
<path d="M46 29V37C46 38.1046 45.1046 39 44.0001 39H35.5V28.5408C35.5 26.033 37.533 24 40.0408 24H41C43.7615 24 46 26.2386 46 29Z" stroke="#225FBF" stroke-width="1.7" stroke-linecap="round" stroke-linejoin="round"/>
<path d="M1.99995 29V37C1.99995 38.1046 2.89538 39 3.99995 39L12.5 39V28.5464C12.5 26.0355 10.4645 24 7.95361 24H6.99995C4.23853 24 1.99995 26.2386 1.99995 29Z" stroke="#225FBF" stroke-width="1.7" stroke-linecap="round" stroke-linejoin="round"/>
<path d="M23.8281 16C27.1418 16 29.8281 13.3137 29.8281 10C29.8281 6.68629 27.1418 4 23.8281 4C20.5144 4 17.8281 6.68629 17.8281 10C17.8281 13.3137 20.5144 16 23.8281 16Z" stroke="#225FBF" stroke-width="1.7"/>
<path d="M39.2969 20.2683C41.7822 20.2683 43.7969 18.2536 43.7969 15.7683C43.7969 13.283 41.7822 11.2683 39.2969 11.2683C36.8116 11.2683 34.7969 13.283 34.7969 15.7683C34.7969 18.2536 36.8116 20.2683 39.2969 20.2683Z" stroke="#225FBF" stroke-width="1.7"/>
<path d="M8.44531 20.2429C10.9306 20.2429 12.9453 18.2282 12.9453 15.7429C12.9453 13.2576 10.9306 11.2429 8.44531 11.2429C5.96003 11.2429 3.94531 13.2576 3.94531 15.7429C3.94531 18.2282 5.96003 20.2429 8.44531 20.2429Z" stroke="#225FBF" stroke-width="1.7"/>
</svg>
