<svg width="48" height="48" viewBox="0 0 48 48" fill="none" xmlns="http://www.w3.org/2000/svg">
<path d="M30.6667 18L18 30.6667" stroke="#225FBF" stroke-width="1.7" stroke-linecap="round" stroke-linejoin="round"/>
<path d="M17.9974 18L30.6641 30.6667" stroke="#225FBF" stroke-width="1.7" stroke-linecap="round" stroke-linejoin="round"/>
<path d="M43 26.4813C42.5072 30.2066 40.9161 33.7028 38.4279 36.5278C35.9397 39.3528 32.6661 41.3798 29.0211 42.3524C25.376 43.3251 21.5232 43.1997 17.9497 41.9922C14.3761 40.7847 11.2425 38.5493 8.94478 35.5685C6.6471 32.5878 5.28862 28.9957 5.0411 25.2462C4.79358 21.4968 5.66813 17.7585 7.55418 14.504C9.44023 11.2494 12.2531 8.62477 15.6371 6.96188C19.0211 5.299 22.8243 4.67254 26.5659 5.16171" stroke="#225FBF" stroke-width="1.7" stroke-linecap="round"/>
</svg>
