<svg width="42" height="42" viewBox="0 0 42 42" fill="none" xmlns="http://www.w3.org/2000/svg">
<g clip-path="url(#clip0_3_2726)">
<path d="M21.1029 41.3888L26.8979 8.7975C32.4215 8.7975 34.1638 9.4032 34.4154 11.8755C34.4154 11.8755 38.1208 10.4939 39.9897 7.68787C32.6968 4.3085 25.3691 4.15609 25.3691 4.15609L21.0933 9.364L21.1029 9.36335L16.8271 4.15527C16.8271 4.15527 9.4992 4.30784 2.20728 7.68722C4.07452 10.4932 7.78141 11.8748 7.78141 11.8748C8.03444 9.40239 9.7746 8.79669 15.2612 8.79277L21.1029 41.3888Z" fill="#F2F2F2"/>
<path d="M21.1006 2.65211C26.9959 2.60703 33.7437 3.56409 40.6514 6.57479C41.5747 4.91303 41.812 4.17862 41.812 4.17862C34.2609 1.19112 27.1893 0.168712 21.0998 0.143066C15.0106 0.168712 7.9394 1.19128 0.389221 4.17862C0.389221 4.17862 0.726048 5.08324 1.549 6.57479C8.45542 3.56409 15.2044 2.60703 21.0998 2.65211H21.1006Z" fill="#F2F2F2"/>
</g>
<defs>
<clipPath id="clip0_3_2726">
<rect width="41.5325" height="41.2461" fill="white" transform="translate(0.246033)"/>
</clipPath>
</defs>
</svg>
