<svg width="213" height="29" viewBox="0 0 213 29" fill="none" xmlns="http://www.w3.org/2000/svg">
<path d="M6.57916 26.3202L0.315235 20.0595C-0.105078 19.6392 -0.105078 18.9554 0.315235 18.535L2.29447 16.5558C2.71478 16.1355 3.39858 16.1355 3.81889 16.5558L6.57602 19.3129C6.99633 19.7333 7.68013 19.7333 8.10044 19.3129L19.2983 8.11504C19.7186 7.69473 20.4024 7.69473 20.8228 8.11504L22.802 10.0943C23.2223 10.5146 23.2223 11.1984 22.802 11.6187L8.10358 26.3202C7.68013 26.7437 6.99947 26.7437 6.57916 26.3202Z" fill="#76DA46"/>
<path d="M22.2342 26.4016L15.1296 19.297L18.6364 15.7903L22.2342 19.388C22.6106 19.7644 23.2254 19.7644 23.6018 19.388L34.9565 8.03328C35.3329 7.65688 35.9477 7.65688 36.3241 8.03328L38.4633 10.1725C38.8397 10.5489 38.8397 11.1637 38.4633 11.5401L23.6018 26.4016C23.2222 26.778 22.6106 26.778 22.2342 26.4016Z" fill="#76DA46"/>
<path d="M32.7108 23.2495C33.0746 22.2427 33.9341 21.4616 34.9817 21.2421C36.9892 20.8249 38.7708 22.4246 38.7708 24.3191C38.7708 26.0098 37.3562 27.4244 35.6279 27.4244C33.5859 27.4244 31.9485 25.3668 32.7108 23.2495Z" fill="#76DA46"/>
<path d="M83.9074 16.2488V28.3532H78.8386V16.6032C78.8386 14.2444 77.6216 12.8706 75.5357 12.8706C73.2177 12.8706 71.8815 14.4421 71.8815 17.3121V28.3563H66.8126V16.6032C66.8126 14.2444 65.5956 12.8706 63.5097 12.8706C61.2701 12.8706 59.8147 14.4421 59.8147 17.3121V28.3563H54.7458V8.70196H59.8147V10.7847C60.9941 9.01562 62.8008 8.1499 65.2788 8.1499C67.6752 8.1499 69.485 9.09404 70.6237 10.9792C71.9191 9.09404 73.8858 8.1499 76.4798 8.1499C80.9997 8.15304 83.9074 11.3368 83.9074 16.2488Z" fill="white"/>
<path d="M87.6431 3.23767C87.6431 1.547 89.0577 0.0947266 90.7484 0.0947266C92.4767 0.0947266 93.8913 1.55014 93.8913 3.23767C93.8913 4.92833 92.4767 6.34297 90.7484 6.34297C89.0577 6.34297 87.6431 4.92833 87.6431 3.23767Z" fill="white"/>
<path d="M93.3018 8.70166H88.2329V28.3529H93.3018V8.70166Z" fill="white"/>
<path d="M114.17 10.314C115.585 11.7694 116.294 13.733 116.294 16.2862V28.353H111.225V16.9167C111.225 14.2819 109.691 12.8672 107.332 12.8672C104.7 12.8672 103.01 14.4795 103.01 17.7416V28.353H97.9409V8.70175H103.01V10.9037C104.227 9.05619 106.193 8.15283 108.866 8.15283C111.027 8.15283 112.796 8.85858 114.17 10.314Z" fill="white"/>
<path d="M131.858 13.5763H127.416V21.7504C127.416 23.874 128.95 23.9116 131.858 23.7548V28.3531C124.9 29.1404 122.347 27.1361 122.347 21.7504V13.5763H118.928V8.70191H122.347V4.73403L127.416 3.2002V8.70191H131.858V13.5763Z" fill="white"/>
<path d="M148.087 13.5763H143.645V21.7504C143.645 23.874 145.179 23.9116 148.087 23.7548V28.3531C141.129 29.1404 138.576 27.1361 138.576 21.7504V13.5763H135.157V8.70191H138.576V4.73403L143.645 3.2002V8.70191H148.087V13.5763Z" fill="white"/>
<path d="M167.292 8.70175H172.361V28.353H167.292V26.035C165.759 27.9609 163.638 28.905 160.887 28.905C158.253 28.905 156.013 27.9232 154.128 25.9189C152.28 23.9146 151.336 21.4397 151.336 18.5289C151.336 15.6181 152.28 13.184 154.128 11.1797C156.013 9.17538 158.256 8.15283 160.887 8.15283C163.638 8.15283 165.762 9.09697 167.292 11.0229V8.70175ZM161.828 24.0683C163.4 24.0683 164.698 23.557 165.718 22.5344C166.778 21.4742 167.289 20.138 167.289 18.5258C167.289 16.9135 166.778 15.5773 165.718 14.5548C164.695 13.4946 163.4 12.9833 161.828 12.9833C160.257 12.9833 158.958 13.4946 157.939 14.5548C156.916 15.5773 156.405 16.9135 156.405 18.5258C156.405 20.138 156.916 21.4742 157.939 22.5344C158.958 23.557 160.257 24.0683 161.828 24.0683Z" fill="white"/>
<path d="M185.055 16.443C187.925 17.0327 191.658 18.4065 191.617 22.6128C191.617 24.6171 190.871 26.1886 189.337 27.2896C187.844 28.3497 185.956 28.9018 183.716 28.9018C179.67 28.9018 176.916 27.3303 175.463 24.225L179.864 21.7502C180.454 23.4409 181.712 24.3034 183.716 24.3034C185.523 24.3034 186.429 23.7545 186.429 22.6128C186.429 21.5526 184.858 20.9629 182.853 20.4516C179.946 19.7051 176.291 18.4849 176.291 14.3979C176.291 12.4719 177 10.9381 178.415 9.83715C179.87 8.69854 181.636 8.14648 183.76 8.14648C186.944 8.14648 189.694 9.63954 191.228 12.312L186.906 14.6707C186.279 13.3345 185.215 12.6664 183.763 12.6664C182.468 12.6664 181.483 13.2969 181.483 14.2787C181.48 15.3451 183.051 15.9348 185.055 16.443Z" fill="white"/>
<path d="M213 28.353H207.106L199.951 19.4323V28.353H194.883V0.841309H199.951V17.3496L206.711 8.70179H212.765L204.867 18.4098L213 28.353Z" fill="white"/>
</svg>
