<svg width="223" height="31" viewBox="0 0 223 31" fill="none" xmlns="http://www.w3.org/2000/svg">
<path d="M6.88994 27.4567L0.331985 20.902C-0.108058 20.462 -0.108058 19.7461 0.331985 19.3061L2.40413 17.2339C2.84417 16.7939 3.56006 16.7939 4.00011 17.2339L6.88666 20.1205C7.3267 20.5605 8.04259 20.5605 8.48263 20.1205L20.2062 8.39693C20.6462 7.95688 21.3621 7.95688 21.8021 8.39693L23.8743 10.4691C24.3143 10.9091 24.3143 11.625 23.8743 12.065L8.48592 27.4567C8.04259 27.9 7.32998 27.9 6.88994 27.4567Z" fill="#76DA46"/>
<path d="M23.2798 27.5422L15.8418 20.1042L19.5132 16.4328L23.2798 20.1994C23.6739 20.5935 24.3175 20.5935 24.7116 20.1994L36.5993 8.31166C36.9934 7.9176 37.6371 7.9176 38.0311 8.31166L40.2708 10.5513C40.6648 10.9454 40.6648 11.589 40.2708 11.9831L24.7116 27.5422C24.3143 27.9363 23.6739 27.9363 23.2798 27.5422Z" fill="#76DA46"/>
<path d="M34.2483 24.2417C34.6292 23.1875 35.529 22.3698 36.6258 22.14C38.7275 21.7032 40.5928 23.378 40.5928 25.3615C40.5928 27.1315 39.1117 28.6125 37.3023 28.6125C35.1645 28.6125 33.4503 26.4583 34.2483 24.2417Z" fill="#76DA46"/>
<path d="M87.8478 16.9121V29.5847H82.541V17.2832C82.541 14.8137 81.2669 13.3754 79.0831 13.3754C76.6563 13.3754 75.2573 15.0206 75.2573 18.0254V29.588H69.9506V17.2832C69.9506 14.8137 68.6764 13.3754 66.4926 13.3754C64.1479 13.3754 62.6242 15.0206 62.6242 18.0254V29.588H57.3174V9.01107H62.6242V11.1916C63.8589 9.33946 65.7504 8.43311 68.3447 8.43311C70.8536 8.43311 72.7484 9.42156 73.9405 11.3952C75.2968 9.42156 77.3558 8.43311 80.0716 8.43311C84.8037 8.43639 87.8478 11.7696 87.8478 16.9121Z" fill="#1B2644"/>
<path d="M91.7588 3.29047C91.7588 1.52045 93.2398 0 95.0099 0C96.8193 0 98.3003 1.52373 98.3003 3.29047C98.3003 5.06049 96.8193 6.54153 95.0099 6.54153C93.2398 6.54153 91.7588 5.06049 91.7588 3.29047Z" fill="#1B2644"/>
<path d="M97.6828 9.01099H92.376V29.5846H97.6828V9.01099Z" fill="#1B2644"/>
<path d="M119.531 10.6989C121.012 12.2226 121.754 14.2783 121.754 16.9514V29.5846H116.447V17.6115C116.447 14.853 114.842 13.372 112.372 13.372C109.617 13.372 107.847 15.0599 107.847 18.4752V29.5846H102.54V9.01096H107.847V11.3163C109.121 9.38204 111.18 8.43628 113.978 8.43628C116.24 8.43628 118.093 9.17516 119.531 10.6989Z" fill="#1B2644"/>
<path d="M138.049 14.1141H133.399V22.672C133.399 24.8952 135.005 24.9346 138.049 24.7704V29.5846C130.765 30.4089 128.092 28.3104 128.092 22.672V14.1141H124.513V9.01094H128.092V4.85681L133.399 3.25098V9.01094H138.049V14.1141Z" fill="#1B2644"/>
<path d="M155.04 14.1141H150.39V22.672C150.39 24.8952 151.996 24.9346 155.04 24.7704V29.5846C147.756 30.4089 145.083 28.3104 145.083 22.672V14.1141H141.504V9.01094H145.083V4.85681L150.39 3.25098V9.01094H155.04V14.1141Z" fill="#1B2644"/>
<path d="M175.148 9.01096H180.454V29.5846H175.148V27.1578C173.542 29.1741 171.322 30.1626 168.442 30.1626C165.683 30.1626 163.339 29.1347 161.365 27.0363C159.431 24.9379 158.442 22.3469 158.442 19.2994C158.442 16.252 159.431 13.7037 161.365 11.6052C163.339 9.50683 165.687 8.43628 168.442 8.43628C171.322 8.43628 173.545 9.42473 175.148 11.4411V9.01096ZM169.427 25.0988C171.072 25.0988 172.432 24.5635 173.499 23.493C174.609 22.383 175.144 20.9841 175.144 19.2961C175.144 17.6082 174.609 16.2093 173.499 15.1387C172.429 14.0288 171.072 13.4935 169.427 13.4935C167.782 13.4935 166.422 14.0288 165.355 15.1387C164.284 16.2093 163.749 17.6082 163.749 19.2961C163.749 20.9841 164.284 22.383 165.355 23.493C166.422 24.5635 167.782 25.0988 169.427 25.0988Z" fill="#1B2644"/>
<path d="M193.744 17.1156C196.749 17.733 200.657 19.1713 200.614 23.575C200.614 25.6735 199.833 27.3187 198.227 28.4713C196.664 29.5813 194.687 30.1593 192.342 30.1593C188.106 30.1593 185.223 28.514 183.702 25.263L188.309 22.672C188.927 24.442 190.244 25.3451 192.342 25.3451C194.234 25.3451 195.183 24.7704 195.183 23.575C195.183 22.4651 193.537 21.8477 191.439 21.3124C188.395 20.5309 184.569 19.2534 184.569 14.9745C184.569 12.9582 185.311 11.3524 186.792 10.1997C188.316 9.00765 190.165 8.42969 192.388 8.42969C195.721 8.42969 198.601 9.99283 200.207 12.7907L195.682 15.2602C195.025 13.8613 193.912 13.1618 192.391 13.1618C191.035 13.1618 190.004 13.8219 190.004 14.8497C190.001 15.9662 191.646 16.5836 193.744 17.1156Z" fill="#1B2644"/>
<path d="M223 29.5846H216.83L209.339 20.2452V29.5846H204.032V0.781494H209.339V18.0647L216.416 9.01096H222.754L214.485 19.1746L223 29.5846Z" fill="#1B2644"/>
</svg>
